# File created by Blade
# Date/Time:  Wed Jan 21 18:34:41 2015
# Frame Rate: 120.000 fps
#------------------------------------------------------
:FULLY-SPECIFIED
:DEGREES
1738
root 2.675189 32.705241 -7.827488 42.455943 2.135250 1.123349
RightUpLeg -39.077694 -17.104733 8.287447
RightLeg -2.400368 -0.000000 0.000000
RightFoot -8.094966 -0.962782 22.118290
RightToeBase 21.892177 -0.000000 -0.000000
LeftUpLeg -40.383692 11.761172 -4.690163
LeftLeg 1.056267 -0.000000 -0.000000
LeftFoot -3.297449 -7.924631 -15.049889
LeftToeBase 3.922628 -0.000000 -0.000000
Spine -49.883838 -0.653684 -2.670877
RightShoulder 0.567134 49.932712 -39.335912
RightArm 40.212033 -31.471338 75.111725
RightForeArm 6.466925 0.000000 4.504621
RightHand 11.643816 -0.000000 8.217499
RightHandThumb1 -24.326973 -0.000000 -32.862282
LeftShoulder 10.639988 -24.785468 32.675685
LeftArm 78.237905 23.381125 -49.480164
LeftForeArm 20.650658 0.000000 5.571663
LeftHand -11.547366 -0.000000 -8.473675
LeftHandThumb1 -26.253704 0.000000 33.147579
Head -0.741448 -3.133733 8.175190
1739
root 2.677462 32.704676 -7.819661 42.461621 2.167574 1.134284
RightUpLeg -39.064450 -17.109763 8.269843
RightLeg -2.395626 -0.000000 0.000000
RightFoot -8.119261 -0.998333 22.125183
RightToeBase 21.855492 -0.000000 -0.000000
LeftUpLeg -40.376107 11.759740 -4.707321
LeftLeg 1.043815 -0.000000 -0.000000
LeftFoot -3.289227 -7.954023 -15.037289
LeftToeBase 3.901583 -0.000000 -0.000000
Spine -49.917306 -0.676794 -2.669652
RightShoulder 0.621487 49.946939 -39.276418
RightArm 40.275416 -31.628329 74.999161
RightForeArm 6.342591 -0.000000 4.441756
RightHand 11.643685 -0.000000 8.257924
RightHandThumb1 -24.326973 -0.000000 -32.862282
LeftShoulder 10.622084 -24.741471 32.677037
LeftArm 78.277956 23.369024 -49.437472
LeftForeArm 20.670772 0.000000 5.501376
LeftHand -11.592190 -0.000000 -8.393072
LeftHandThumb1 -26.253704 0.000000 33.147579
Head -0.655648 -3.170547 8.198073
1740
root 2.677617 32.704002 -7.811066 42.466615 2.211889 1.131203
RightUpLeg -39.046718 -17.114975 8.273681
RightLeg -2.390211 -0.000000 0.000000
RightFoot -8.157050 -1.009796 22.145736
RightToeBase 21.860941 -0.000000 -0.000000
LeftUpLeg -40.366459 11.760499 -4.699872
LeftLeg 1.031092 -0.000000 -0.000000
LeftFoot -3.293031 -7.991755 -15.033272
LeftToeBase 3.936476 -0.000000 -0.000000
Spine -49.947550 -0.667928 -2.711445
RightShoulder 0.559495 49.910984 -39.286668
RightArm 40.312402 -31.738542 74.916011
RightForeArm 6.237971 -0.000000 4.435722
RightHand 11.730642 0.000000 8.035951
RightHandThumb1 -24.326973 -0.000000 -32.862282
LeftShoulder 10.676998 -24.760270 32.681612
LeftArm 78.289752 23.364429 -49.416234
LeftForeArm 20.786385 0.000000 5.451746
LeftHand -11.533418 -0.000000 -8.311791
LeftHandThumb1 -26.253704 0.000000 33.147579
Head -0.587680 -3.260308 8.263649
1741
root 2.672400 32.704302 -7.802663 42.470904 2.264740 1.103804
RightUpLeg -39.049716 -17.156841 8.352414
RightLeg -2.367843 -0.000000 0.000000
RightFoot -8.145973 -0.959764 22.186737
RightToeBase 21.873536 -0.000000 -0.000000
LeftUpLeg -40.369421 11.789476 -4.668308
LeftLeg 1.031941 -0.000000 -0.000000
LeftFoot -3.291527 -8.055407 -15.045646
LeftToeBase 3.943565 -0.000000 -0.000000
Spine -49.982650 -0.653430 -2.749222
RightShoulder 0.512960 49.856431 -39.270846
RightArm 40.287397 -31.790824 74.877746
RightForeArm 6.189465 -0.000000 4.467958
RightHand 11.799974 -0.000000 8.033386
RightHandThumb1 -24.326973 -0.000000 -32.862282
LeftShoulder 10.761336 -24.762762 32.676634
LeftArm 78.332259 23.348195 -49.280763
LeftForeArm 20.902765 -0.000000 5.431722
LeftHand -11.526448 -0.000000 -8.244888
LeftHandThumb1 -26.253704 0.000000 33.147579
Head -0.499645 -3.361836 8.352810
